<?xml version="1.0" encoding="UTF-8"?>
<svg id="Camada_2" data-name="Camada 2" xmlns="http://www.w3.org/2000/svg" xmlns:xlink="http://www.w3.org/1999/xlink" viewBox="0 0 370.59 351.08">
  <defs>
    <style>
      .cls-1 {
        fill: url(#Gradiente_sem_nome_110);
      }

      .cls-2 {
        fill: url(#Gradiente_sem_nome_110-5);
      }

      .cls-3 {
        fill: url(#Gradiente_sem_nome_110-8);
      }

      .cls-4 {
        fill: url(#Gradiente_sem_nome_110-7);
      }

      .cls-5 {
        fill: url(#Gradiente_sem_nome_110-4);
      }

      .cls-6 {
        fill: url(#Gradiente_sem_nome_110-3);
      }

      .cls-7 {
        fill: url(#Gradiente_sem_nome_110-6);
      }

      .cls-8 {
        fill: url(#Gradiente_sem_nome_110-2);
      }
    </style>
    <linearGradient id="Gradiente_sem_nome_110" data-name="Gradiente sem nome 110" x1="-183.08" y1="-107.06" x2="917.68" y2="384.68" gradientUnits="userSpaceOnUse">
      <stop offset="0" stop-color="#dda463"/>
      <stop offset=".18" stop-color="#e37f34"/>
      <stop offset=".37" stop-color="#dd4d25"/>
      <stop offset=".59" stop-color="#c02c1b"/>
      <stop offset=".79" stop-color="#7e1a0e"/>
      <stop offset="1" stop-color="#3d1008"/>
    </linearGradient>
    <linearGradient id="Gradiente_sem_nome_110-2" data-name="Gradiente sem nome 110" x1="-182.9" y1="-107.46" x2="917.86" y2="384.28" xlink:href="#Gradiente_sem_nome_110"/>
    <linearGradient id="Gradiente_sem_nome_110-3" data-name="Gradiente sem nome 110" x1="-243.08" y1="27.25" x2="857.68" y2="518.99" xlink:href="#Gradiente_sem_nome_110"/>
    <linearGradient id="Gradiente_sem_nome_110-4" data-name="Gradiente sem nome 110" x1="-243.21" y1="27.54" x2="857.55" y2="519.28" xlink:href="#Gradiente_sem_nome_110"/>
    <linearGradient id="Gradiente_sem_nome_110-5" data-name="Gradiente sem nome 110" x1="-271.32" y1="90.46" x2="829.44" y2="582.2" xlink:href="#Gradiente_sem_nome_110"/>
    <linearGradient id="Gradiente_sem_nome_110-6" data-name="Gradiente sem nome 110" x1="-271.5" y1="90.88" x2="829.25" y2="582.62" xlink:href="#Gradiente_sem_nome_110"/>
    <linearGradient id="Gradiente_sem_nome_110-7" data-name="Gradiente sem nome 110" x1="-211.01" y1="-44.53" x2="889.74" y2="447.21" xlink:href="#Gradiente_sem_nome_110"/>
    <linearGradient id="Gradiente_sem_nome_110-8" data-name="Gradiente sem nome 110" x1="-210.87" y1="-44.84" x2="889.88" y2="446.9" xlink:href="#Gradiente_sem_nome_110"/>
  </defs>
  <g id="VARIAÇÃO_3" data-name="VARIAÇÃO 3">
    <g id="ICON_-_VARIAÇÃO_3" data-name="ICON - VARIAÇÃO 3">
      <g>
        <path class="cls-1" d="M221.52,167.33l74.1-1.15,69.27-58.46-16.01-19.26-90.27,76.18-26.88-31.85c-13.5-16-12.55-44.43,6.3-60.34l56.85-47.97-16.17-18.88-57.13,48.21c-29.14,24.59-37.91,68.67-12.84,98.38l12.78,15.14Z"/>
        <path class="cls-8" d="M219.7,171.34l-14-16.58c-25.21-29.87-19.24-76.53,13.31-103.99L279.17,0l21.36,24.93-59.92,50.56c-8.06,6.8-12.99,16.54-13.88,27.41-.84,10.29,2.09,20.25,8.05,27.31l24.31,28.81,90.29-76.2,21.1,25.39-73.38,61.93-77.41,1.2ZM278.26,11.19l-54.11,45.66c-29.19,24.63-34.74,66.25-12.36,92.76l11.56,13.7,28.57-.44-23.22-27.52c-7.31-8.66-10.92-20.72-9.91-33.1,1.06-13.01,6.99-24.68,16.68-32.86l53.78-45.38-10.99-12.82ZM348.39,94.09l-81.22,68.54,26.97-.42,65.16-54.99-10.91-13.13Z"/>
      </g>
      <g>
        <path class="cls-6" d="M257.16,186.57l92.41,73.57,15.45-19.71-70.91-56.45-74.1.96-12.34,15.5c-24.21,30.41-14.18,74.23,15.64,97.97l58.49,46.56,15.63-19.33-58.19-46.33c-19.3-15.36-21.06-43.76-8.02-60.14l25.96-32.61Z"/>
        <path class="cls-5" d="M282.4,350.55l-61.58-49.02c-33.32-26.53-40.63-72.99-16.28-103.57l13.52-16.98,77.41-1.01,75.12,59.8-20.37,25.98-92.43-73.59-23.48,29.49c-5.75,7.23-8.4,17.26-7.27,27.53,1.2,10.85,6.41,20.44,14.66,27.01l61.34,48.83-20.64,25.53ZM221.94,188.9l-11.16,14.02c-21.61,27.14-14.88,68.58,15.01,92.37l55.39,44.1,10.62-13.13-55.05-43.83c-9.93-7.9-16.18-19.4-17.62-32.37-1.36-12.34,1.9-24.5,8.96-33.37l22.43-28.17-28.57.37ZM265.76,188.33l83.14,66.19,10.53-13.44-66.71-53.11-26.97.35Z"/>
      </g>
      <g>
        <path class="cls-2" d="M150.15,184.97l-74.11-.37L5.58,241.62l15.61,19.58,91.81-74.31,26.22,32.4c13.17,16.27,11.64,44.68-7.54,60.2l-57.82,46.8,15.78,19.2,58.11-47.03c29.63-23.98,39.31-67.88,14.85-98.09l-12.46-15.4Z"/>
        <path class="cls-7" d="M89.08,351.08l-20.84-25.36,60.94-49.32c8.2-6.64,13.33-16.27,14.44-27.12,1.05-10.27-1.68-20.29-7.49-27.47l-23.71-29.3-91.84,74.33L0,241.01l74.64-60.41,77.42.38,13.65,16.87c24.59,30.39,17.66,76.91-15.44,103.7l-61.18,49.52ZM79.49,326.86l10.72,13.04,55.04-44.54c29.69-24.03,36.09-65.52,14.26-92.49l-11.28-13.93-28.57-.14,22.65,27.99c7.13,8.81,10.49,20.94,9.23,33.29-1.33,12.98-7.49,24.53-17.36,32.51l-54.7,44.27ZM11.16,242.23l10.64,13.35,82.61-66.86-26.97-.13L11.16,242.23Z"/>
      </g>
      <g>
        <path class="cls-4" d="M148.72,54.39L91.2,6.64l-16.02,19,57.23,47.51c18.98,15.76,20.16,44.18,6.79,60.29l-26.62,32.07L21.7,90.06l-15.85,19.39,69.74,57.9,74.11.56,12.65-15.24c24.83-29.91,15.71-73.92-13.63-98.27Z"/>
        <path class="cls-3" d="M151.55,171.91l-77.42-.58L.26,109.99l20.9-25.56,90.9,75.47,24.08-29c5.9-7.11,8.76-17.09,7.84-27.37-.98-10.87-5.98-20.56-14.1-27.3l-60.32-50.08L90.71,1.05l60.56,50.28c15.1,12.53,25.49,30.57,28.51,49.49,3.21,20.05-1.9,39.37-14.37,54.39l-13.86,16.7ZM119.27,163.69l28.57.22,11.45-13.79c10.98-13.23,15.47-30.29,12.63-48.05-2.73-17.04-12.11-33.3-25.73-44.62L91.7,12.23l-10.88,12.91,54.14,44.95c9.76,8.1,15.78,19.73,16.95,32.72,1.11,12.37-2.4,24.46-9.64,33.18l-23,27.7ZM77.04,163.38l26.97.2L22.24,95.7l-10.81,13.22,65.6,54.46Z"/>
      </g>
    </g>
  </g>
</svg>