<?xml version="1.0" encoding="UTF-8"?>
<svg id="Camada_2" data-name="Camada 2" xmlns="http://www.w3.org/2000/svg" xmlns:xlink="http://www.w3.org/1999/xlink" viewBox="0 0 836.25 198.89">
  <defs>
    <style>
      .cls-1 {
        fill: url(#Gradiente_sem_nome_110-26);
      }

      .cls-2 {
        fill: url(#Gradiente_sem_nome_110-20);
      }

      .cls-3 {
        fill: url(#Gradiente_sem_nome_110-22);
      }

      .cls-4 {
        fill: url(#Gradiente_sem_nome_110-23);
      }

      .cls-5 {
        fill: url(#Gradiente_sem_nome_110-25);
      }

      .cls-6 {
        fill: url(#Gradiente_sem_nome_110-24);
      }

      .cls-7 {
        fill: url(#Gradiente_sem_nome_110-29);
      }

      .cls-8 {
        fill: url(#Gradiente_sem_nome_110-21);
      }

      .cls-9 {
        fill: url(#Gradiente_sem_nome_110-27);
      }

      .cls-10 {
        fill: url(#Gradiente_sem_nome_110-28);
      }

      .cls-11 {
        fill: url(#Gradiente_sem_nome_110-19);
      }

      .cls-12 {
        fill: url(#Gradiente_sem_nome_110-17);
      }

      .cls-13 {
        fill: url(#Gradiente_sem_nome_110-18);
      }

      .cls-14 {
        fill: url(#Gradiente_sem_nome_110-12);
      }

      .cls-15 {
        fill: url(#Gradiente_sem_nome_110-14);
      }

      .cls-16 {
        fill: url(#Gradiente_sem_nome_110-10);
      }

      .cls-17 {
        fill: url(#Gradiente_sem_nome_110-16);
      }

      .cls-18 {
        fill: url(#Gradiente_sem_nome_110-11);
      }

      .cls-19 {
        fill: url(#Gradiente_sem_nome_110-13);
      }

      .cls-20 {
        fill: url(#Gradiente_sem_nome_110-15);
      }

      .cls-21 {
        fill: url(#Gradiente_sem_nome_110-31);
      }

      .cls-22 {
        fill: url(#Gradiente_sem_nome_110-30);
      }

      .cls-23 {
        fill: url(#Gradiente_sem_nome_110-32);
      }

      .cls-24 {
        fill: url(#Gradiente_sem_nome_110);
      }

      .cls-25 {
        fill: url(#Gradiente_sem_nome_110-5);
      }

      .cls-26 {
        fill: url(#Gradiente_sem_nome_110-8);
      }

      .cls-27 {
        fill: url(#Gradiente_sem_nome_110-7);
      }

      .cls-28 {
        fill: url(#Gradiente_sem_nome_110-4);
      }

      .cls-29 {
        fill: url(#Gradiente_sem_nome_110-3);
      }

      .cls-30 {
        fill: url(#Gradiente_sem_nome_110-6);
      }

      .cls-31 {
        fill: url(#Gradiente_sem_nome_110-2);
      }

      .cls-32 {
        fill: url(#Gradiente_sem_nome_110-9);
      }
    </style>
    <linearGradient id="Gradiente_sem_nome_110" data-name="Gradiente sem nome 110" x1="-68.07" y1="46.83" x2="933.93" y2="57.12" gradientUnits="userSpaceOnUse">
      <stop offset="0" stop-color="#dda463"/>
      <stop offset=".18" stop-color="#e37f34"/>
      <stop offset=".37" stop-color="#dd4d25"/>
      <stop offset=".59" stop-color="#c02c1b"/>
      <stop offset=".79" stop-color="#7e1a0e"/>
      <stop offset="1" stop-color="#3d1008"/>
    </linearGradient>
    <linearGradient id="Gradiente_sem_nome_110-2" data-name="Gradiente sem nome 110" x1="-68.07" y1="46.38" x2="933.93" y2="56.67" xlink:href="#Gradiente_sem_nome_110"/>
    <linearGradient id="Gradiente_sem_nome_110-3" data-name="Gradiente sem nome 110" x1="-69.1" y1="147.44" x2="932.89" y2="157.73" xlink:href="#Gradiente_sem_nome_110"/>
    <linearGradient id="Gradiente_sem_nome_110-4" data-name="Gradiente sem nome 110" x1="-69.11" y1="147.88" x2="932.89" y2="158.17" xlink:href="#Gradiente_sem_nome_110"/>
    <linearGradient id="Gradiente_sem_nome_110-5" data-name="Gradiente sem nome 110" x1="-69.12" y1="148.85" x2="932.88" y2="159.14" xlink:href="#Gradiente_sem_nome_110"/>
    <linearGradient id="Gradiente_sem_nome_110-6" data-name="Gradiente sem nome 110" x1="-69.12" y1="149.3" x2="932.87" y2="159.59" xlink:href="#Gradiente_sem_nome_110"/>
    <linearGradient id="Gradiente_sem_nome_110-7" data-name="Gradiente sem nome 110" x1="-68.08" y1="48.1" x2="933.91" y2="58.39" xlink:href="#Gradiente_sem_nome_110"/>
    <linearGradient id="Gradiente_sem_nome_110-8" data-name="Gradiente sem nome 110" x1="-68.08" y1="47.65" x2="933.92" y2="57.94" xlink:href="#Gradiente_sem_nome_110"/>
    <linearGradient id="Gradiente_sem_nome_110-9" data-name="Gradiente sem nome 110" x1="-69.4" y1="176.13" x2="932.6" y2="186.42" xlink:href="#Gradiente_sem_nome_110"/>
    <linearGradient id="Gradiente_sem_nome_110-10" data-name="Gradiente sem nome 110" x1="-69.4" y1="175.88" x2="932.6" y2="186.17" xlink:href="#Gradiente_sem_nome_110"/>
    <linearGradient id="Gradiente_sem_nome_110-11" data-name="Gradiente sem nome 110" x1="-69.39" y1="175.56" x2="932.6" y2="185.85" xlink:href="#Gradiente_sem_nome_110"/>
    <linearGradient id="Gradiente_sem_nome_110-12" data-name="Gradiente sem nome 110" x1="-69.39" y1="175.24" x2="932.61" y2="185.53" xlink:href="#Gradiente_sem_nome_110"/>
    <linearGradient id="Gradiente_sem_nome_110-13" data-name="Gradiente sem nome 110" x1="-69.39" y1="175.05" x2="932.61" y2="185.34" xlink:href="#Gradiente_sem_nome_110"/>
    <linearGradient id="Gradiente_sem_nome_110-14" data-name="Gradiente sem nome 110" x1="-69.39" y1="174.78" x2="932.61" y2="185.07" xlink:href="#Gradiente_sem_nome_110"/>
    <linearGradient id="Gradiente_sem_nome_110-15" data-name="Gradiente sem nome 110" x1="-69.38" y1="174.7" x2="932.61" y2="184.99" xlink:href="#Gradiente_sem_nome_110"/>
    <linearGradient id="Gradiente_sem_nome_110-16" data-name="Gradiente sem nome 110" x1="-69.38" y1="174.17" x2="932.62" y2="184.46" xlink:href="#Gradiente_sem_nome_110"/>
    <linearGradient id="Gradiente_sem_nome_110-17" data-name="Gradiente sem nome 110" x1="-69.38" y1="173.88" x2="932.62" y2="184.17" xlink:href="#Gradiente_sem_nome_110"/>
    <linearGradient id="Gradiente_sem_nome_110-18" data-name="Gradiente sem nome 110" x1="-69.37" y1="173.37" x2="932.63" y2="183.66" xlink:href="#Gradiente_sem_nome_110"/>
    <linearGradient id="Gradiente_sem_nome_110-19" data-name="Gradiente sem nome 110" x1="-69.37" y1="172.97" x2="932.63" y2="183.26" xlink:href="#Gradiente_sem_nome_110"/>
    <linearGradient id="Gradiente_sem_nome_110-20" data-name="Gradiente sem nome 110" x1="-69.36" y1="172.53" x2="932.63" y2="182.81" xlink:href="#Gradiente_sem_nome_110"/>
    <linearGradient id="Gradiente_sem_nome_110-21" data-name="Gradiente sem nome 110" x1="-69.36" y1="172.18" x2="932.64" y2="182.47" xlink:href="#Gradiente_sem_nome_110"/>
    <linearGradient id="Gradiente_sem_nome_110-22" data-name="Gradiente sem nome 110" x1="-69.36" y1="171.89" x2="932.64" y2="182.18" xlink:href="#Gradiente_sem_nome_110"/>
    <linearGradient id="Gradiente_sem_nome_110-23" data-name="Gradiente sem nome 110" x1="-69.36" y1="172.23" x2="932.64" y2="182.52" xlink:href="#Gradiente_sem_nome_110"/>
    <linearGradient id="Gradiente_sem_nome_110-24" data-name="Gradiente sem nome 110" x1="-69.35" y1="171.36" x2="932.65" y2="181.65" xlink:href="#Gradiente_sem_nome_110"/>
    <linearGradient id="Gradiente_sem_nome_110-25" data-name="Gradiente sem nome 110" x1="-69.35" y1="170.92" x2="932.65" y2="181.21" xlink:href="#Gradiente_sem_nome_110"/>
    <linearGradient id="Gradiente_sem_nome_110-26" data-name="Gradiente sem nome 110" x1="-69.34" y1="170.69" x2="932.65" y2="180.97" xlink:href="#Gradiente_sem_nome_110"/>
    <linearGradient id="Gradiente_sem_nome_110-27" data-name="Gradiente sem nome 110" x1="-69.34" y1="170.43" x2="932.66" y2="180.71" xlink:href="#Gradiente_sem_nome_110"/>
    <linearGradient id="Gradiente_sem_nome_110-28" data-name="Gradiente sem nome 110" x1="-68.28" y1="67.24" x2="933.72" y2="77.53" xlink:href="#Gradiente_sem_nome_110"/>
    <linearGradient id="Gradiente_sem_nome_110-29" data-name="Gradiente sem nome 110" x1="-68.47" y1="85.48" x2="933.53" y2="95.77" xlink:href="#Gradiente_sem_nome_110"/>
    <linearGradient id="Gradiente_sem_nome_110-30" data-name="Gradiente sem nome 110" x1="-68.45" y1="83.86" x2="933.55" y2="94.15" xlink:href="#Gradiente_sem_nome_110"/>
    <linearGradient id="Gradiente_sem_nome_110-31" data-name="Gradiente sem nome 110" x1="-68.44" y1="82.64" x2="933.56" y2="92.93" xlink:href="#Gradiente_sem_nome_110"/>
    <linearGradient id="Gradiente_sem_nome_110-32" data-name="Gradiente sem nome 110" x1="-68.43" y1="81.56" x2="933.57" y2="91.85" xlink:href="#Gradiente_sem_nome_110"/>
  </defs>
  <g id="VARIAÇÃO_3" data-name="VARIAÇÃO 3">
    <g id="LOGOTIPO_1_-_VARIAÇÃO_3" data-name="LOGOTIPO 1 - VARIAÇÃO 3">
      <g id="ICON">
        <g>
          <path class="cls-24" d="M125.5,94.79l41.98-.65,39.24-33.12-9.07-10.91-51.14,43.16-15.23-18.04c-7.65-9.06-7.11-25.17,3.57-34.18l32.2-27.18-9.16-10.69-32.37,27.31c-16.51,13.93-21.48,38.9-7.27,55.73l7.24,8.58Z"/>
          <path class="cls-31" d="M124.46,97.07l-7.93-9.4c-14.28-16.92-10.9-43.35,7.54-58.91L158.15,0l12.1,14.12-33.94,28.64c-4.57,3.85-7.36,9.37-7.86,15.53-.48,5.83,1.19,11.47,4.56,15.47l13.77,16.32,51.15-43.17,11.95,14.38-41.57,35.08-43.85.68ZM157.64,6.34l-30.65,25.87c-16.54,13.96-19.68,37.53-7,52.55l6.55,7.76,16.18-.25-13.16-15.59c-4.14-4.9-6.18-11.74-5.61-18.75.6-7.37,3.96-13.98,9.45-18.61l30.47-25.71-6.23-7.27ZM197.37,53.31l-46.01,38.83,15.28-.24,36.92-31.15-6.18-7.44Z"/>
        </g>
        <g>
          <path class="cls-29" d="M145.68,105.7l52.35,41.68,8.75-11.17-40.17-31.98-41.98.55-6.99,8.78c-13.72,17.23-8.04,42.05,8.86,55.5l33.13,26.38,8.85-10.95-32.97-26.25c-10.93-8.7-11.93-24.79-4.55-34.07l14.71-18.47Z"/>
          <path class="cls-28" d="M159.98,198.59l-34.88-27.77c-18.88-15.03-23.01-41.35-9.22-58.67l7.66-9.62,43.86-.57,42.56,33.88-11.54,14.72-52.36-41.69-13.3,16.71c-3.26,4.1-4.76,9.78-4.12,15.59.68,6.14,3.63,11.58,8.3,15.3l34.75,27.66-11.69,14.46ZM125.73,107.01l-6.32,7.94c-12.24,15.38-8.43,38.85,8.5,52.33l31.38,24.98,6.02-7.44-31.19-24.83c-5.62-4.48-9.17-10.99-9.98-18.34-.77-6.99,1.08-13.88,5.07-18.9l12.7-15.96-16.18.21ZM150.56,106.69l47.1,37.5,5.97-7.61-37.79-30.09-15.28.2Z"/>
        </g>
        <g>
          <path class="cls-25" d="M85.06,104.79l-41.98-.21L3.16,136.88l8.84,11.09,52.01-42.1,14.85,18.35c7.46,9.22,6.59,25.31-4.27,34.1l-32.76,26.51,8.94,10.88,32.92-26.64c16.79-13.59,22.27-38.45,8.42-55.57l-7.06-8.72Z"/>
          <path class="cls-30" d="M50.46,198.89l-11.81-14.37,34.52-27.94c4.65-3.76,7.55-9.22,8.18-15.37.6-5.82-.95-11.49-4.24-15.56l-13.43-16.6-52.03,42.11-11.66-14.63,42.28-34.22,43.86.22,7.73,9.56c13.93,17.21,10.01,43.57-8.75,58.75l-34.66,28.05ZM45.03,185.17l6.07,7.39,31.18-25.23c16.82-13.61,20.45-37.12,8.08-52.4l-6.39-7.89-16.18-.08,12.83,15.86c4.04,4.99,5.94,11.86,5.23,18.86-.75,7.35-4.24,13.9-9.83,18.42l-30.99,25.08ZM6.32,137.23l6.03,7.56,46.8-37.88-15.28-.08-37.55,30.39Z"/>
        </g>
        <g>
          <path class="cls-27" d="M84.25,30.81L51.67,3.76l-9.08,10.77,32.42,26.92c10.75,8.93,11.42,25.03,3.84,34.15l-15.08,18.17L12.29,51.02l-8.98,10.98,39.51,32.8,41.98.32,7.17-8.64c14.07-16.94,8.9-41.88-7.72-55.67Z"/>
          <path class="cls-26" d="M85.86,97.39l-43.86-.33L.15,62.31l11.84-14.48,51.5,42.75,13.64-16.43c3.34-4.03,4.96-9.68,4.44-15.51-.55-6.16-3.39-11.65-7.99-15.47L39.4,14.81,51.39.59l34.31,28.48c8.55,7.1,14.44,17.32,16.15,28.04,1.82,11.36-1.07,22.31-8.14,30.81l-7.85,9.46ZM67.57,92.74l16.18.12,6.49-7.81c6.22-7.49,8.76-17.16,7.15-27.22-1.54-9.65-6.86-18.87-14.58-25.28L51.95,6.93l-6.17,7.31,30.67,25.46c5.53,4.59,8.94,11.18,9.6,18.54.63,7.01-1.36,13.86-5.46,18.79l-13.03,15.69ZM43.64,92.56l15.28.12L12.6,54.21l-6.12,7.49,37.16,30.85Z"/>
        </g>
      </g>
      <g id="INFOR">
        <g id="DES">
          <path class="cls-32" d="M264.57,165.81v27.47h-2.75v-27.47h2.75Z"/>
          <path class="cls-16" d="M297.13,165.81v27.47h-2.35l-13.34-21.97v21.97h-2.75v-27.47h2.35l13.34,21.97v-21.97h2.75Z"/>
          <path class="cls-18" d="M309.68,185.32h2.75c0,3.77,2.9,5.77,6.87,5.77,3.37,0,6.08-1.8,6.08-4.75s-2.9-4.28-6.16-5.49c-4.16-1.57-8.75-2.98-8.75-8.32,0-4.55,4-7.18,8.28-7.18,4.59,0,8.59,2.83,8.59,7.85h-2.75c0-3.37-2.51-5.18-5.85-5.18-3.02,0-5.53,1.61-5.53,4.51,0,3.14,2.75,4.36,6.04,5.61,4.16,1.61,8.87,3.14,8.87,8.2,0,4.59-4.2,7.42-8.83,7.42-5.22,0-9.61-3.02-9.61-8.44Z"/>
          <path class="cls-14" d="M355.58,168.4h-7.65v24.88h-2.75v-24.88h-7.65v-2.59h18.05v2.59Z"/>
          <path class="cls-19" d="M370.09,165.81v27.47h-2.75v-27.47h2.75Z"/>
          <path class="cls-15" d="M399.91,168.4h-7.65v24.88h-2.75v-24.88h-7.65v-2.59h18.05v2.59Z"/>
          <path class="cls-20" d="M411.28,185.12v-19.31h2.75v19.31c0,3.96,2.71,5.96,6.67,5.96s6.67-2,6.67-5.96v-19.31h2.75v19.31c0,5.61-4.2,8.63-9.42,8.63s-9.42-3.02-9.42-8.63Z"/>
          <path class="cls-17" d="M459.54,168.4h-7.65v24.88h-2.75v-24.88h-7.65v-2.59h18.05v2.59Z"/>
          <path class="cls-12" d="M468.16,179.55c0-7.85,6.2-14.2,14.21-14.2s14.2,6.36,14.2,14.2-6.2,14.2-14.2,14.2-14.21-6.36-14.21-14.2ZM493.83,179.55c0-6.4-4.94-11.54-11.46-11.54s-11.46,5.14-11.46,11.54,4.94,11.54,11.46,11.54,11.46-5.14,11.46-11.54Z"/>
          <path class="cls-13" d="M551.1,179.55c0,7.57-5.38,13.73-12.95,13.73h-11.38v-27.47h11.38c7.57,0,12.95,6.16,12.95,13.73ZM548.43,179.55c0-6.16-4.16-11.14-10.28-11.14h-8.63v22.29h8.63c6.12,0,10.28-4.98,10.28-11.14Z"/>
          <path class="cls-11" d="M579.34,190.69v2.59h-15.7v-27.47h15.5v2.59h-12.75v9.73h11.77v2.59h-11.77v9.97h12.95Z"/>
          <path class="cls-2" d="M627.59,174.05c0,4.51-3.69,8.24-8.24,8.24h-7.06v10.99h-2.75v-27.47h9.81c4.55,0,8.24,3.69,8.24,8.24ZM624.84,174.05c0-3.14-2.47-5.65-5.49-5.65h-7.06v11.3h7.06c3.02,0,5.49-2.55,5.49-5.65Z"/>
          <path class="cls-8" d="M655.83,190.69v2.59h-15.7v-27.47h15.5v2.59h-12.75v9.73h11.77v2.59h-11.77v9.97h12.95Z"/>
          <path class="cls-3" d="M666.81,185.32h2.75c0,3.77,2.9,5.77,6.87,5.77,3.37,0,6.08-1.8,6.08-4.75s-2.9-4.28-6.16-5.49c-4.16-1.57-8.75-2.98-8.75-8.32,0-4.55,4-7.18,8.28-7.18,4.59,0,8.59,2.83,8.59,7.85h-2.75c0-3.37-2.51-5.18-5.85-5.18-3.02,0-5.53,1.61-5.53,4.51,0,3.14,2.75,4.36,6.04,5.61,4.16,1.61,8.87,3.14,8.87,8.2,0,4.59-4.2,7.42-8.83,7.42-5.22,0-9.61-3.02-9.61-8.44Z"/>
          <path class="cls-4" d="M720.37,189.51l3.65,4.16-1.96,1.57-3.61-4.08c-2.32,1.61-5.14,2.59-8.2,2.59-7.85,0-14.21-6.36-14.21-14.2s6.36-14.2,14.21-14.2,14.2,6.36,14.2,14.2c0,3.88-1.57,7.42-4.08,9.97ZM716.68,189.12l-3.92-4.43,1.96-1.57,3.85,4.36c1.96-2.04,3.14-4.83,3.14-7.93,0-6.4-5.1-11.54-11.46-11.54s-11.46,5.14-11.46,11.54,5.1,11.54,11.46,11.54c2.39,0,4.59-.71,6.44-1.96Z"/>
          <path class="cls-6" d="M736.6,185.12v-19.31h2.75v19.31c0,3.96,2.71,5.96,6.67,5.96s6.67-2,6.67-5.96v-19.31h2.75v19.31c0,5.61-4.2,8.63-9.42,8.63s-9.42-3.02-9.42-8.63Z"/>
          <path class="cls-5" d="M771.91,165.81v27.47h-2.75v-27.47h2.75Z"/>
          <path class="cls-1" d="M784.46,185.32h2.75c0,3.77,2.9,5.77,6.87,5.77,3.37,0,6.08-1.8,6.08-4.75s-2.9-4.28-6.16-5.49c-4.16-1.57-8.75-2.98-8.75-8.32,0-4.55,4-7.18,8.28-7.18,4.59,0,8.59,2.83,8.59,7.85h-2.75c0-3.37-2.51-5.18-5.85-5.18-3.02,0-5.53,1.61-5.53,4.51,0,3.14,2.75,4.36,6.04,5.61,4.16,1.61,8.87,3.14,8.87,8.2,0,4.59-4.2,7.42-8.83,7.42-5.22,0-9.61-3.02-9.61-8.44Z"/>
          <path class="cls-9" d="M830.79,186.53h-13.03l-2.55,6.75h-2.9l10.56-27.47h2.83l10.56,27.47h-2.9l-2.55-6.75ZM829.81,183.94l-5.53-14.72-5.53,14.72h11.07Z"/>
        </g>
        <g id="FOCCO">
          <path class="cls-10" d="M248.52,41.95h17.67v-4.59L307.61,3.65h25.9v17.94h-45.86v20.37h36.42v18.07h-36.42v60.56l-21.72,17.81V60.03h-17.4v-18.07Z"/>
          <path class="cls-7" d="M376.26,138.4c-27.52,0-52.88-20.23-52.88-48.29v-14.3l41.41-33.86h36.56c27.25,0,52.88,19.96,52.88,48.15v.13c0,28.19-25.63,48.15-52.88,48.15h-25.09ZM345.11,60.03v30.08c0,15.11,13.76,30.35,31.56,30.35h25.22c17.13-.4,30.62-15.38,30.62-30.21v-.13c0-14.97-13.49-29.68-30.62-30.08h-56.79Z"/>
          <path class="cls-22" d="M466.65,75.81l41.41-33.86h65.42l.14,18.07h-85.25v30.08c0,15.11,13.76,30.35,31.56,30.35h53.69l-.14,17.94h-53.96c-27.52,0-52.87-20.23-52.87-48.29v-14.3Z"/>
          <path class="cls-21" d="M586.03,75.81l41.41-33.86h65.42l.14,18.07h-85.25v30.08c0,15.11,13.76,30.35,31.56,30.35h53.69l-.14,17.94h-53.96c-27.52,0-52.87-20.23-52.87-48.29v-14.3Z"/>
          <path class="cls-23" d="M758.28,138.4c-27.52,0-52.87-20.23-52.87-48.29v-14.3l41.41-33.86h36.55c27.25,0,52.88,19.96,52.88,48.15v.13c0,28.19-25.63,48.15-52.88,48.15h-25.09ZM727.12,60.03v30.08c0,15.11,13.76,30.35,31.56,30.35h25.22c17.13-.4,30.62-15.38,30.62-30.21v-.13c0-14.97-13.49-29.68-30.62-30.08h-56.79Z"/>
        </g>
      </g>
    </g>
  </g>
</svg>